<?xml version="1.0" encoding="UTF-8"?>
<svg version="1.1" xmlns="http://www.w3.org/2000/svg" width="512" height="512">
<path d="M0 0 C3.57536813 2.7880851 6.81298077 5.77907631 10 9 C10.93585938 9.88558594 10.93585938 9.88558594 11.890625 10.7890625 C20.3538636 19.44291459 25.6863459 32.27216717 28 44 C28.226875 45.093125 28.45375 46.18625 28.6875 47.3125 C31.28695937 77.98612059 17.4781127 100.50294691 2.375 126.0625 C1.7783252 127.08432373 1.18165039 128.10614746 0.56689453 129.15893555 C-4.38661256 137.44827161 -10.02346079 145.27567467 -17 152 C-14.96812906 152.38982304 -12.93620061 152.77934778 -10.90405273 153.16772461 C-9.0634329 153.51990216 -7.22310881 153.87362825 -5.38305664 154.22875977 C0.06449827 155.27389624 5.51659513 156.26915928 10.984375 157.203125 C12.1602417 157.40848877 13.3361084 157.61385254 14.54760742 157.82543945 C16.83229225 158.22327962 19.1188717 158.61043933 21.4074707 158.98510742 C31.24352152 160.71931769 40.37981424 163.93027376 48.8125 169.375 C49.64394531 169.89835938 50.47539062 170.42171875 51.33203125 170.9609375 C57.41623449 175.61094349 62.1497411 181.20703062 66.625 187.375 C67.66977391 188.79095449 68.71537505 190.20629889 69.76171875 191.62109375 C70.29458496 192.34409668 70.82745117 193.06709961 71.37646484 193.81201172 C74.02592317 197.38260503 76.73095358 200.91009566 79.4375 204.4375 C79.97713379 205.14181152 80.51676758 205.84612305 81.07275391 206.57177734 C82.16787848 208.00100772 83.2632563 209.43004408 84.35888672 210.85888672 C87.07575428 214.40350566 89.78763701 217.95193377 92.5 221.5 C93.58330916 222.91668515 94.6666425 224.33335181 95.75 225.75 C106.58333333 239.91666667 117.41666667 254.08333333 128.25 268.25 C128.78689453 268.9519751 129.32378906 269.6539502 129.87695312 270.37719727 C130.95423577 271.78618833 132.03106288 273.19552782 133.10742188 274.60522461 C135.90459111 278.26739724 138.71071915 281.92218741 141.53125 285.56640625 C142.11197266 286.31921875 142.69269531 287.07203125 143.29101562 287.84765625 C144.39091519 289.27312608 145.49356466 290.69648049 146.59960938 292.1171875 C155.51883329 303.69733224 160.16089728 313.64776778 158.55859375 328.6796875 C156.27386176 342.26026229 147.66665565 350.50266866 136.81640625 358.33203125 C135.5456291 359.22329395 134.27330898 360.11235818 133 361 C132.17097168 361.58056152 131.34194336 362.16112305 130.48779297 362.75927734 C125.58804191 366.18711868 120.67826504 369.60020465 115.76171875 373.00390625 C110.8655041 376.39508076 105.98748227 379.81066927 101.125 383.25 C100.44518066 383.73073975 99.76536133 384.21147949 99.06494141 384.70678711 C97.71483065 385.66202363 96.36489354 386.61750562 95.01513672 387.57324219 C84.5252347 395.00030632 74.01761466 402.40149321 63.47949219 409.76000977 C59.32632118 412.66213306 55.18275146 415.57628889 51.05859375 418.51953125 C50.27935547 419.07447266 49.50011719 419.62941406 48.69726562 420.20117188 C47.22624808 421.2500824 45.7573786 422.30201413 44.29101562 423.35742188 C41.54917155 425.31047928 39.21325748 426.92891417 36 428 C35.92523438 428.79921875 35.85046875 429.5984375 35.7734375 430.421875 C34.15543116 443.9369868 28.80444226 453.60556169 19 463 C18.26007813 463.3815625 17.52015625 463.763125 16.7578125 464.15625 C13.26829662 467.81636444 14.49122305 473.8793056 14.51171875 478.68554688 C14.40280478 485.4134597 14.40280478 485.4134597 12.21875 488.59375 C9.90939639 490.05742482 8.7088518 490.56779073 6 490.5625 C5.34 490.58441406 4.68 490.60632813 4 490.62890625 C0.84568378 489.63702166 -0.20417407 487.71238243 -2 485 C-2.48101807 481.89311218 -2.48101807 481.89311218 -2.45410156 478.3737793 C-2.45468567 477.72931351 -2.45526978 477.08484772 -2.45587158 476.42085266 C-2.45309954 474.30474728 -2.42205361 472.19007595 -2.390625 470.07421875 C-2.38315937 468.60163645 -2.37746796 467.12904417 -2.37347412 465.65644836 C-2.35824282 461.79121194 -2.31898363 457.92658215 -2.2746582 454.06158447 C-2.23365082 450.11340541 -2.2154515 446.16512778 -2.1953125 442.21679688 C-2.15248605 434.47758881 -2.08426624 426.73887959 -2 419 C-3.23339111 419.01812744 -4.46678223 419.03625488 -5.73754883 419.05493164 C-7.37320592 419.06959332 -9.00886704 419.08381145 -10.64453125 419.09765625 C-11.86082214 419.11729431 -11.86082214 419.11729431 -13.10168457 419.1373291 C-21.46419777 419.19037727 -27.61643249 417.48374004 -33.875 411.75 C-40.16665954 404.7312383 -42.39184085 397.46948726 -42 388 C-40.8767766 384.17776891 -40.40231415 383.26820943 -37 381 C-25.31282457 378.9214084 -12.81730482 379.90688149 -1 380 C-0.92645546 378.33611237 -0.92645546 378.33611237 -0.85142517 376.63861084 C-0.25175478 363.85221808 0.80085872 351.13359615 1.99609375 338.390625 C2.19179581 336.28221924 2.38735469 334.17380018 2.58277893 332.06536865 C2.98945445 327.68850821 3.39913637 323.31194169 3.81079102 318.93554688 C4.33687096 313.33803166 4.85324001 307.73966612 5.36718655 302.14102554 C5.76665928 297.80483861 6.17223246 293.46923823 6.57954597 289.13378143 C6.77262369 287.06878013 6.96358467 285.00357973 7.15234184 282.93817902 C7.41608869 280.06003643 7.68830965 277.18281392 7.96264648 274.30566406 C8.03804153 273.46300995 8.11343658 272.62035583 8.19111633 271.75216675 C9.3358971 260.01296302 9.3358971 260.01296302 12.62109375 256.0390625 C13.22050781 255.57242187 13.81992187 255.10578125 14.4375 254.625 C15.03433594 254.14289063 15.63117188 253.66078125 16.24609375 253.1640625 C20.05371186 250.63695739 23.55785 250.62982083 28 251 C33.41462758 253.36274658 36.91068598 256.70010075 40.97265625 260.93359375 C42.86624233 262.86366511 44.81706487 264.62347775 46.875 266.375 C50.06682509 269.11621449 53.04302977 272.00685888 56 275 C59.54232199 278.58558699 63.17555661 281.94891662 67.00390625 285.22265625 C70.06803813 287.95099285 72.90481832 290.89667908 75.78515625 293.81640625 C77.77659461 295.77974671 79.81302578 297.62079669 81.9375 299.4375 C86.89253129 303.6875068 91.42212509 308.35205558 96 313 C96.74636719 313.68835938 97.49273437 314.37671875 98.26171875 315.0859375 C100 317 100 317 100.5625 320.4375 C99.51221913 327.08927882 92.73029194 330.99573231 87.6875 335.0625 C86.98818359 335.62904297 86.28886719 336.19558594 85.56835938 336.77929688 C80.14270526 341.14604983 74.59946666 345.33504834 69.00268555 349.47875977 C64.22954355 353.02995879 59.59493413 356.72174362 55 360.5 C49.12714332 365.32904817 43.13477921 369.9454325 37.01977539 374.46289062 C31.35663591 378.67070985 25.89080972 383.09741871 20.49023438 387.63671875 C19.87341797 388.14847656 19.25660156 388.66023438 18.62109375 389.1875 C18.0892749 389.63480469 17.55745605 390.08210938 17.00952148 390.54296875 C11.19445447 394.75926324 7.61554043 396.50788017 0.31640625 396.390625 C-0.38396255 396.38496521 -1.08433136 396.37930542 -1.80592346 396.37347412 C-4.01717945 396.3512922 -6.22674373 396.30113806 -8.4375 396.25 C-9.94724203 396.22991115 -11.45700975 396.21166458 -12.96679688 396.1953125 C-16.64506999 396.15148947 -20.32236956 396.08259341 -24 396 C-21.45395403 399.52381687 -21.45395403 399.52381687 -18 402 C-16.02645273 402.09466862 -14.05001581 402.13185343 -12.07421875 402.140625 C-10.88505859 402.15996094 -9.69589844 402.17929687 -8.47070312 402.19921875 C-5.9604464 402.23291347 -3.44993461 402.2512898 -0.93945312 402.25390625 C0.25357422 402.27839844 1.44660156 402.30289062 2.67578125 402.328125 C3.76802002 402.3374707 4.86025879 402.34681641 5.9855957 402.35644531 C10.09285709 403.23331751 11.53376333 404.62622634 14 408 C14.50762732 410.76892757 14.72264271 412.94400312 14.70703125 415.70703125 C14.72215256 416.43242599 14.73727386 417.15782074 14.75285339 417.90519714 C14.79562827 420.20795013 14.80455741 422.50938984 14.8125 424.8125 C14.83565261 426.37959196 14.86101956 427.94665286 14.88867188 429.51367188 C14.95142194 433.34256345 14.98383701 437.17063984 15 441 C15.48355957 439.91412598 15.96711914 438.82825195 16.46533203 437.70947266 C16.73733429 437.09866852 17.00933655 436.48786438 17.2895813 435.85855103 C18.72593173 432.1008648 18.81151003 428.06036611 19.1796875 424.0859375 C20.96661711 417.36367849 27.89260045 413.72106302 33.3125 409.875 C34.10648193 409.306604 34.90046387 408.73820801 35.71850586 408.15258789 C41.44686614 404.06595093 47.22686284 400.05734118 53.03735352 396.08862305 C58.51847788 392.34385191 63.94575619 388.52684508 69.36352539 384.69116211 C74.89603139 380.77541566 80.44480218 376.88347753 86 373 C92.9310052 368.15313858 99.85481621 363.29646489 106.75756836 358.40942383 C110.34652395 355.86882217 113.94329649 353.34066644 117.5546875 350.83203125 C132.70069258 341.47962333 132.70069258 341.47962333 141.49609375 326.94140625 C142.74183223 319.53118869 140.75748012 313.16570186 136.43359375 307.078125 C135.44724613 305.79251299 134.44805345 304.51667344 133.4375 303.25 C132.90374756 302.560271 132.36999512 301.87054199 131.82006836 301.15991211 C130.73379948 299.75806102 129.642464 298.36012011 128.54589844 296.96630859 C127.1665865 295.21189003 125.80160038 293.44801899 124.4453125 291.67578125 C122.84016647 289.57856586 121.23176537 287.48443472 119.6171875 285.39453125 C116.62836731 281.52238949 113.65771025 277.63642518 110.6875 273.75 C110.139729 273.03336182 109.59195801 272.31672363 109.02758789 271.57836914 C107.90945193 270.11543786 106.79136957 268.6524656 105.67333984 267.18945312 C102.94966736 263.62571008 100.22478337 260.06289369 97.5 256.5 C96.41666062 255.08333796 95.33332729 253.66667128 94.25 252.25 C93.71375 251.54875 93.1775 250.8475 92.625 250.125 C91 248 89.375 245.875 87.75 243.75 C86.94598755 242.6986084 86.94598755 242.6986084 86.12573242 241.62597656 C85.03993353 240.20607316 83.95415888 238.78615122 82.8684082 237.36621094 C80.19799415 233.87391567 77.52719105 230.38191954 74.85546875 226.890625 C74.33412354 226.20919434 73.81277832 225.52776367 73.27563477 224.82568359 C72.21774702 223.44303 71.15964188 222.06054272 70.10131836 220.67822266 C67.00303633 216.62880762 63.91523089 212.57168985 60.8359375 208.5078125 C60.12606689 207.57227539 59.41619629 206.63673828 58.68481445 205.67285156 C57.30653709 203.85586565 55.92997188 202.03757925 54.55541992 200.21777344 C41.10512188 182.49767479 28.19739409 177.00571246 6.10546875 173.52734375 C4.16142224 173.20768729 2.21737719 172.88802169 0.27341938 172.56782627 C-3.08733286 172.01680557 -6.44999311 171.47769049 -9.8125 170.9375 C-13.85225954 170.28774931 -17.89153462 169.63545339 -21.92887878 168.97084045 C-24.42852905 168.56016256 -26.92939747 168.15680974 -29.43159485 167.76194763 C-45.95222161 165.04777839 -45.95222161 165.04777839 -52 159 C-56.20717297 152.23847202 -56.53516599 145.85269132 -54.78515625 138.25 C-54 136 -54 136 -51.8125 133.3125 C-48.06539001 131.56384867 -45.94530692 131.90408141 -42 133 C-39.82098069 134.65340107 -39.0967559 135.57235367 -38.48828125 138.26171875 C-38.40126953 139.46248047 -38.40126953 139.46248047 -38.3125 140.6875 C-38.21388672 141.89986328 -38.21388672 141.89986328 -38.11328125 143.13671875 C-38.07589844 143.75160156 -38.03851563 144.36648437 -38 145 C-36.46847894 144.18647574 -34.95035129 143.34773783 -33.4375 142.5 C-32.59058594 142.0359375 -31.74367188 141.571875 -30.87109375 141.09375 C-24.03042266 136.10517898 -19.62309072 129.23533393 -15.4375 122 C-14.93790771 121.14986328 -14.43831543 120.29972656 -13.92358398 119.42382812 C-12.84761788 117.59056586 -11.77521535 115.75520827 -10.70605469 113.91796875 C-8.91880986 110.86113557 -7.10601173 107.82051053 -5.2890625 104.78125 C-4.04633183 102.68782235 -2.80413453 100.59407797 -1.5625 98.5 C-0.98363037 97.53449219 -0.40476074 96.56898437 0.19165039 95.57421875 C10.32047851 78.35270782 14.99130433 61.66850943 9.90673828 41.94067383 C6.19182002 28.9664853 -1.42071669 19.25217182 -12.8125 12.1875 C-25.5494312 5.23142037 -39.85415742 3.63573646 -53.875 7.625 C-74.92152629 15.14723293 -85.85164573 29.95026832 -96.5625 48.8125 C-97.21508789 49.95525391 -97.86767578 51.09800781 -98.54003906 52.27539062 C-107.93245103 68.81921802 -114.69524355 81.68767912 -114 101 C-112.90429688 100.80277344 -111.80859375 100.60554688 -110.6796875 100.40234375 C-107 100 -107 100 -104.125 101.5625 C-101.45002529 104.63085334 -101.19644775 105.92905527 -101 110 C-101.78539656 113.50207573 -102.97564551 116.83474179 -104.18359375 120.2109375 C-104.51794937 121.17907379 -104.85230499 122.14721008 -105.1967926 123.14468384 C-106.26426854 126.22607019 -107.35056283 129.30043133 -108.4375 132.375 C-109.16596569 134.46701232 -109.89319373 136.55945605 -110.61914062 138.65234375 C-112.39844652 143.77331586 -114.19323508 148.88865577 -116 154 C-115.38511719 154.38816895 -114.77023438 154.77633789 -114.13671875 155.17626953 C-113.32847656 155.69817871 -112.52023438 156.22008789 -111.6875 156.7578125 C-110.88699219 157.26973145 -110.08648437 157.78165039 -109.26171875 158.30908203 C-104.67673952 161.73692812 -102.05621055 166.32136058 -101.0625 171.9375 C-100.67869527 177.85739722 -101.66062616 183.63454368 -105.1875 188.5 C-108.66383011 191.59007121 -110.39733957 191.74542873 -115 192 C-117.69949715 191.40859573 -120.10171086 190.76068218 -122.69140625 189.8671875 C-123.39974106 189.63347443 -124.10807587 189.39976135 -124.83787537 189.15896606 C-126.32690805 188.66342541 -127.81347967 188.16043344 -129.29760742 187.65039062 C-131.55314742 186.87820188 -133.81721038 186.13690286 -136.08398438 185.3984375 C-137.53707036 184.91067365 -138.98956623 184.42114756 -140.44140625 183.9296875 C-141.11031387 183.7117453 -141.7792215 183.4938031 -142.46839905 183.26925659 C-145.97186789 182.04356402 -147.96741288 181.03477896 -150.53152466 178.29820251 C-152.60590972 176.54050873 -153.60384415 176.01205861 -156.35092449 175.92844009 C-159.31323143 176.35068673 -162.18070375 176.95602045 -165.0949707 177.63549805 C-166.20305084 177.86885361 -167.31113098 178.10220917 -168.45278931 178.34263611 C-172.11702211 179.1212834 -175.77063078 179.94158745 -179.42578125 180.76171875 C-181.97335716 181.3098239 -184.52156145 181.85501581 -187.07035828 182.39741516 C-193.09950482 183.68478912 -199.12193678 185.00101678 -205.14223593 186.32908708 C-216.54578193 188.84355918 -227.96212726 191.29892021 -239.37880516 193.75293922 C-243.12175601 194.56253318 -246.86134964 195.38635511 -250.60066223 196.21257019 C-252.90599746 196.7144955 -255.21138902 197.21616217 -257.5168457 197.7175293 C-258.55039688 197.94980225 -259.58394806 198.1820752 -260.64881897 198.42138672 C-275.3848095 201.59462835 -275.3848095 201.59462835 -280.5625 198.4375 C-282.54771911 195.07125891 -282.48071685 192.84573483 -282 189 C-280.43703189 186.15791782 -279.46800449 185.17163438 -276.3963623 184.04515076 C-275.34194946 183.82972122 -274.28753662 183.61429169 -273.20117188 183.39233398 C-271.98675415 183.13557388 -270.77233643 182.87881378 -269.52111816 182.61427307 C-268.17036987 182.34550667 -266.819579 182.07695422 -265.46875 181.80859375 C-264.04635379 181.51360797 -262.62428233 181.21705257 -261.20251465 180.91905212 C-258.11534245 180.27450715 -255.02644037 179.63929401 -251.93603516 179.01043701 C-246.87801723 177.97899195 -241.82726989 176.91450621 -236.77734375 175.84423828 C-226.93932693 173.76120265 -217.09730722 171.69767952 -207.25421143 169.63879395 C-202.57941107 168.66063406 -197.90495738 167.68082019 -193.23046875 166.70117188 C-184.15397222 164.7992206 -175.07711272 162.89900816 -166 161 C-166.33 160.34 -166.66 159.68 -167 159 C-167.203125 156.94140625 -167.203125 156.94140625 -167.25 154.5625 C-167.27578125 153.78003906 -167.3015625 152.99757812 -167.328125 152.19140625 C-166.92175821 149.47745663 -166.14131918 148.6597785 -164 147 C-161.21309135 146.04658388 -159.54304827 145.86080382 -156.68359375 146.59375 C-153.09557458 148.47393472 -150.9238877 151.20537751 -148.4375 154.3125 C-147.96892578 154.88162109 -147.50035156 155.45074219 -147.01757812 156.03710938 C-146.55673828 156.59849609 -146.09589844 157.15988281 -145.62109375 157.73828125 C-145.16702148 158.2912085 -144.71294922 158.84413574 -144.24511719 159.41381836 C-143 161 -143 161 -141.23046875 163.7109375 C-137.96022181 167.06709286 -134.29317594 167.98983911 -129.875 169.3125 C-129.05128906 169.57611328 -128.22757813 169.83972656 -127.37890625 170.11132812 C-123.26492832 171.50002253 -123.26492832 171.50002253 -119 172 C-120.03640625 171.62488281 -121.0728125 171.24976563 -122.140625 170.86328125 C-123.510717 170.3471507 -124.88049231 169.83017897 -126.25 169.3125 C-126.93191406 169.06822266 -127.61382812 168.82394531 -128.31640625 168.57226562 C-132.81250372 166.84803407 -135.40395419 165.23660254 -138 161 C-139.04301226 158.52421827 -139.93764855 156.16934604 -140.75 153.625 C-140.97042969 152.99078125 -141.19085938 152.3565625 -141.41796875 151.703125 C-142.8461741 147.35641308 -143.33646702 143.55912813 -143 139 C-141.5 136.5625 -141.5 136.5625 -139 135 C-136.14647428 134.55448907 -133.93343305 134.71611938 -131 135 C-130.34 135.66 -129.68 136.32 -129 137 C-125.7958404 130.3094096 -125.97133709 126.74765342 -128.25 119.8125 C-128.74342413 118.12464131 -129.22911846 116.43450357 -129.70703125 114.7421875 C-130.05241943 113.51967285 -130.05241943 113.51967285 -130.40478516 112.27246094 C-136.38852323 89.427246 -127.05319245 67.50815303 -116 48 C-115.40687012 46.94393555 -114.81374023 45.88787109 -114.20263672 44.79980469 C-99.26222836 18.34927889 -99.26222836 18.34927889 -89 9 C-88.33097656 8.33871094 -87.66195312 7.67742188 -86.97265625 6.99609375 C-63.76251924 -14.97996644 -26.32429352 -17.38978037 0 0 Z M25 269 C22.99048116 289.33240171 20.98881043 309.66556197 19 330 C18.89951355 331.02702026 18.7990271 332.05404053 18.69549561 333.11218262 C18.22912454 337.88430818 17.76588756 342.65670228 17.3109436 347.42993164 C17.13025497 349.32003023 16.94640039 351.20982533 16.76245117 353.09960938 C16.25995016 358.42557855 15.86123905 363.64999432 16 369 C21.33898177 366.33050912 25.64317011 362.90913569 30.18603516 359.04833984 C35.35849675 354.6611678 40.72987422 350.5509648 46.12207031 346.43945312 C49.76447554 343.64751069 53.38015243 340.82108405 57 338 C64.31208988 332.30542365 71.64531362 326.63945917 79 321 C75.9432452 314.18907546 69.65098748 309.66088884 64.1015625 304.8828125 C61.81334889 302.83277726 59.65739418 300.68704908 57.5 298.5 C54.77170593 295.73439592 52.01483166 293.08712969 49.0625 290.5625 C45.8896408 287.84380752 42.93661618 284.97248325 40 282 C33.14698495 274.67477471 33.14698495 274.67477471 25 269 Z " fill="#464646" transform="translate(347,17)"/>
<path d="M0 0 C2.01022522 -0.00218635 4.01990103 -0.02036405 6.0300293 -0.03930664 C7.30426758 -0.04124023 8.57850586 -0.04317383 9.89135742 -0.04516602 C11.63630493 -0.05132935 11.63630493 -0.05132935 13.41650391 -0.05761719 C17.51198288 0.25659374 20.39167641 1.1133242 23.45776367 3.87280273 C25.11860122 7.28674658 24.50229074 9.57287496 23.58276367 13.18530273 C22.41870117 14.89453125 22.41870117 14.89453125 20.58276367 16.18530273 C17.75463867 16.42724609 17.75463867 16.42724609 14.33276367 16.27514648 C0.14189027 15.16506298 0.14189027 15.16506298 -12.60473633 19.77124023 C-15.35363058 22.59051807 -17.3249912 25.85950476 -19.41723633 29.18530273 C-23.74598116 33.57792841 -28.15568815 34.32762363 -33.99902344 35.39599609 C-35.43940727 35.67743217 -35.43940727 35.67743217 -36.90888977 35.96455383 C-40.08499041 36.58171833 -43.26460376 37.17830327 -46.44458008 37.77514648 C-48.6718607 38.20448156 -50.8988723 38.63521438 -53.12562561 39.067276 C-59.00189375 40.20406207 -64.88124791 41.32397557 -70.76153564 42.4397583 C-80.11163904 44.21715306 -89.45655416 46.02167855 -98.8020649 47.82303047 C-102.03435585 48.44387601 -105.26775258 49.05862951 -108.50144958 49.67210388 C-118.50318045 51.57751612 -128.48756344 53.55818482 -138.43505859 55.73046875 C-139.32387443 55.91719367 -140.21269026 56.10391859 -141.1284399 56.29630184 C-149.83671128 58.24600062 -157.43601355 61.21346857 -162.57348633 68.91967773 C-166.36783067 75.26165328 -167.15727071 80.8922103 -166.41723633 88.18530273 C-164.61764056 95.24613707 -160.58371741 100.3568681 -154.41723633 104.18530273 C-146.0982416 108.57948426 -136.90329511 109.79212199 -127.7406311 111.33483887 C-124.85192403 111.82130142 -121.9659015 112.32168087 -119.08007812 112.82495117 C-108.68315218 114.63102147 -98.27644206 116.3786896 -87.86880493 118.12179565 C-82.61339742 119.0027433 -77.35961439 119.89326006 -72.10571289 120.78314209 C-68.28524956 121.42596224 -64.46271378 122.05521524 -60.63989258 122.68383789 C-58.25958649 123.08478792 -55.87937363 123.48629193 -53.49926758 123.88842773 C-52.42493973 124.0611319 -51.35061188 124.23383606 -50.24372864 124.41177368 C-38.53219893 126.42029305 -29.30421739 129.98382483 -21.41723633 139.18530273 C-16.54617285 147.2516051 -15.36795711 155.02727809 -14.91734314 164.31600952 C-14.85480822 165.51958082 -14.85480822 165.51958082 -14.79100996 166.74746668 C-14.65261767 169.42759648 -14.5191783 172.1079493 -14.38574219 174.78833008 C-14.28736021 176.71398357 -14.18868434 178.63962206 -14.08973694 180.56524658 C-13.82206144 185.7929088 -13.55880278 191.02078479 -13.29655147 196.2487216 C-13.07676943 200.62176667 -12.85479813 204.99469949 -12.63281828 209.36763346 C-12.10853829 219.69618628 -11.58778978 230.02491297 -11.06933594 240.35375977 C-10.53592778 250.97950462 -9.99710236 261.60496459 -9.45547956 272.23029363 C-8.98965857 281.37184173 -8.52700578 290.51354639 -8.06689554 299.65538371 C-7.79252789 305.10641858 -7.51705501 310.55739138 -7.23863029 316.00822067 C-6.97642702 321.14458661 -6.71822529 326.28113918 -6.46295738 331.41785431 C-6.3692138 333.29145104 -6.2741331 335.16498149 -6.1775322 337.03843307 C-5.92273223 341.98846194 -5.6886166 346.938218 -5.50320506 351.89136839 C-5.44531772 353.43599686 -5.38267407 354.98045358 -5.31555104 356.52470827 C-5.22521407 358.74273465 -5.16355929 360.95966199 -5.1108551 363.17886353 C-5.07258889 364.43791819 -5.03432268 365.69697285 -4.99489689 366.99418068 C-5.41723633 370.18530273 -5.41723633 370.18530273 -7.31138515 372.58780479 C-9.57842234 374.30757838 -10.60840508 374.75328873 -13.41723633 374.74780273 C-14.40723633 374.78067383 -14.40723633 374.78067383 -15.41723633 374.81420898 C-18.65848136 373.79498936 -19.61470956 372.03220775 -21.41723633 369.18530273 C-22.11001196 366.05503307 -22.2084676 362.94080172 -22.32348633 359.74316406 C-22.39840553 358.29086049 -22.39840553 358.29086049 -22.47483826 356.80921745 C-22.63987403 353.52502513 -22.77819893 350.24022232 -22.91723633 346.95483398 C-23.03210241 344.57183976 -23.14877703 342.18893215 -23.26708984 339.80610657 C-23.52672524 334.51221277 -23.77516792 329.21795512 -24.01538086 323.92315674 C-24.43600123 314.67256354 -24.89198206 305.42381284 -25.35083008 296.17504883 C-25.43302655 294.51430459 -25.51519492 292.85355896 -25.59733582 291.19281197 C-25.72262462 288.65992036 -25.84793631 286.12702991 -25.97334957 283.59414446 C-26.40076491 274.96101624 -26.82540087 266.32775228 -27.24925804 257.69444871 C-27.37834025 255.06668054 -27.50767436 252.43892485 -27.63703918 249.81117058 C-28.07696149 240.8662719 -28.51171658 231.92115772 -28.93774414 222.97558594 C-29.31723956 215.00793337 -29.7057352 207.04077631 -30.10471821 199.07407504 C-30.3132314 194.90370604 -30.51731241 190.73323353 -30.71017456 186.56210899 C-30.88968942 182.68095914 -31.08111249 178.80057815 -31.28158188 174.92045593 C-31.35251702 173.50696967 -31.41915056 172.09325942 -31.48099136 170.67934608 C-31.90358738 157.51978115 -31.90358738 157.51978115 -37.96166992 146.27099609 C-42.09363247 143.32147529 -46.79298273 142.6608058 -51.70629883 141.81420898 C-52.77554596 141.61509415 -53.84479309 141.41597931 -54.94644165 141.21083069 C-58.76579859 140.51025513 -62.59063042 139.84474083 -66.41723633 139.18530273 C-67.94391128 138.92003348 -69.47056241 138.65462709 -70.99719238 138.38909912 C-85.10746445 135.94072287 -99.22807603 133.5515875 -113.35375977 131.19384766 C-117.87747781 130.43834666 -122.39937835 129.67267537 -126.92030716 128.90066719 C-128.61871192 128.61263976 -130.31775627 128.32835427 -132.0174675 128.04813957 C-149.03427516 125.24071371 -164.98144612 121.11710061 -176.41723633 107.18530273 C-183.63595725 96.69703392 -185.05552226 85.22698204 -182.80004883 72.77905273 C-179.7749258 61.53523264 -173.8607698 53.19803273 -164.20239258 46.72045898 C-157.18918598 42.85483459 -150.40387843 40.46110459 -142.54907227 38.95874023 C-141.13466354 38.67489471 -141.13466354 38.67489471 -139.69168091 38.38531494 C-136.59690276 37.76686897 -133.49939752 37.16348389 -130.40161133 36.56030273 C-128.22257861 36.12810061 -126.04372813 35.69497875 -123.86505127 35.26098633 C-118.13424001 34.12206839 -112.40097394 32.99601354 -106.66711426 31.87255859 C-100.89993079 30.74008177 -95.13529496 29.59479117 -89.37036133 28.45092773 C-81.8464387 26.96014355 -74.32223969 25.47077347 -66.79576588 23.99291515 C-64.84605304 23.60987872 -62.89663721 23.22532695 -60.94754314 22.83915424 C-56.12696173 21.88892783 -51.30368679 20.98167877 -46.46217346 20.14408875 C-45.50423763 19.97427742 -44.5463018 19.80446609 -43.55933762 19.62950897 C-41.75426615 19.31136761 -39.94718257 19.00435169 -38.13794327 18.71083832 C-31.10280799 17.45708394 -27.06883278 14.85794922 -22.85473633 8.99780273 C-21.69337785 7.54068666 -20.52567216 6.08860051 -19.35083008 4.64233398 C-18.87701904 4.00271729 -18.40320801 3.36310059 -17.91503906 2.70410156 C-13.66447028 -1.6060514 -5.56332122 -0.0006787 0 0 Z " fill="#474747" transform="translate(189.417236328125,130.814697265625)"/>
<path d="M0 0 C2.78672091 1.41314296 5.2400582 3.21023866 7.75 5.0625 C8.45012207 5.56112549 9.15024414 6.05975098 9.87158203 6.57348633 C11.92342635 8.0368959 13.96246724 9.51675826 16 11 C17.95498698 12.40051635 19.91267618 13.79728225 21.875 15.1875 C22.63554688 15.73792969 23.39609375 16.28835937 24.1796875 16.85546875 C25.92381712 18.17742772 25.92381712 18.17742772 28 18 C29.6730406 16.08107796 29.6730406 16.08107796 31.375 13.6875 C35.77443423 7.66977168 35.77443423 7.66977168 39 6 C43.7608557 5.81754805 46.3635741 6.99657681 49.83203125 10.0625 C51.17286522 11.36068318 52.49919735 12.67397155 53.8125 14 C55.22459298 15.37568543 56.63735187 16.75068767 58.05078125 18.125 C59.06712646 19.12660156 59.06712646 19.12660156 60.10400391 20.1484375 C62.51329893 22.50126952 64.9882243 24.75692589 67.5 27 C68.26183594 27.68191406 69.02367187 28.36382812 69.80859375 29.06640625 C72.68279095 31.6024626 75.58492597 34.10548026 78.50390625 36.58984375 C81.05452276 38.99394965 81.02420272 40.25009479 81.375 43.875 C81.32042351 47.20416588 81.13460445 47.83276417 78.9375 50.5625 C76.03636214 51.98220576 74.18116831 52.61729979 70.98828125 51.90625 C66.85245043 50.02115619 63.78438242 46.67476503 60.5703125 43.53027344 C58.08892554 41.11215568 55.56872152 38.73579155 53.04492188 36.36206055 C51.69153746 35.0883345 50.34376921 33.80861216 49.00195312 32.52270508 C48.38255859 31.93642334 47.76316406 31.3501416 47.125 30.74609375 C46.57070312 30.21685303 46.01640625 29.6876123 45.4453125 29.14233398 C44.04552697 27.79330728 44.04552697 27.79330728 42 28 C39.81079128 30.54347901 37.74446504 33.16723341 35.6796875 35.8125 C32.72372961 38.22552685 30.8813894 38.72680493 27.0703125 38.46679688 C23.30894965 37.61871601 20.59390548 35.55062369 17.5625 33.25 C16.88872314 32.76208984 16.21494629 32.27417969 15.52075195 31.77148438 C14.08662044 30.73279899 12.65760378 29.68702018 11.23339844 28.63476562 C8.94098532 26.95680343 6.62156987 25.32481878 4.2890625 23.703125 C-2.354379 19.07881643 -2.354379 19.07881643 -4.55078125 17.53125 C-5.44277222 16.90573242 -5.44277222 16.90573242 -6.3527832 16.26757812 C-8.09524346 14.92670757 -9.5944079 13.69641326 -11 12 C-11.39281877 8.90655222 -11.63008105 6.95424795 -11 4 C-7.64106122 0.04830732 -5.04796888 -0.62652096 0 0 Z " fill="#464646" transform="translate(88,67)"/>
<path d="M0 0 C2.92871852 0.98727388 5.68169624 2.28333334 8.46875 3.61328125 C9.26728394 3.98349899 10.06581787 4.35371674 10.8885498 4.7351532 C13.43081349 5.91698283 15.96530778 7.11453152 18.5 8.3125 C20.20394845 9.10714693 21.90837129 9.90077746 23.61328125 10.69335938 C27.44049963 12.47715826 31.26720263 14.26164722 35.07641602 16.08364868 C36.84487697 16.92610294 38.62413507 17.74579295 40.40429688 18.56323242 C43 20 43 20 45 23 C45.4809429 26.68722891 45.22917499 28.56074794 43.5 31.875 C40.57504266 34.36121374 38.90417048 34.36996888 35.14916992 34.26269531 C31.69053667 33.83994291 28.73704424 32.47174159 25.65625 30.9375 C25.00168823 30.62675537 24.34712646 30.31601074 23.67272949 29.99584961 C21.60790707 29.01156528 19.55415219 28.00633196 17.5 27 C16.09182582 26.32410231 14.68297655 25.64960922 13.2734375 24.9765625 C9.84094501 23.33383284 6.41820141 21.67225021 3 20 C0.87885956 23.18171067 -0.35036065 26.28915455 -1.70703125 29.84375 C-3.43872287 32.73164659 -4.88703617 33.72153947 -8 35 C-13.46058776 34.52272498 -18.76934861 32.60707447 -24 31 C-25.09602539 30.66822754 -26.19205078 30.33645508 -27.32128906 29.99462891 C-30.97289152 28.87651796 -34.61247375 27.72554162 -38.25 26.5625 C-39.44061035 26.19157227 -40.6312207 25.82064453 -41.85791016 25.43847656 C-42.98245605 25.06819336 -44.10700195 24.69791016 -45.265625 24.31640625 C-46.27399414 23.99099854 -47.28236328 23.66559082 -48.32128906 23.33032227 C-51.57221034 21.71582445 -53.06453423 20.05121504 -55 17 C-54.94021398 13.53241058 -54.60965977 11.11173251 -52.9375 8.0625 C-48.69148203 5.73403853 -44.11791545 6.71884131 -39.62866211 7.84790039 C-35.73284211 9.01119858 -31.86482741 10.23868738 -28 11.5 C-26.63965926 11.93464783 -25.27898426 12.36825098 -23.91796875 12.80078125 C-20.60803496 13.85515864 -17.30286131 14.92364381 -14 16 C-13.87230225 15.38439209 -13.74460449 14.76878418 -13.61303711 14.13452148 C-13.3540564 12.92131226 -13.3540564 12.92131226 -13.08984375 11.68359375 C-12.920896 10.88236084 -12.75194824 10.08112793 -12.57788086 9.25561523 C-10.80437945 2.33319042 -7.13320465 -0.74886142 0 0 Z " fill="#474747" transform="translate(249,373)"/>
<path d="M0 0 C2.57511171 3.02954319 2.71389555 4.65145207 2.7890625 8.5 C1.74855365 11.63376782 -0.17164476 12.66623825 -2.875 14.5 C-5.48037221 15.28633643 -7.8911615 15.89100641 -10.546875 16.38671875 C-11.26989807 16.5340596 -11.99292114 16.68140045 -12.737854 16.83320618 C-15.0311115 17.29811472 -17.32759641 17.74357939 -19.625 18.1875 C-21.93579651 18.64577037 -24.24572196 19.10803239 -26.55499268 19.57392883 C-27.98847751 19.86188437 -29.42299846 20.14473727 -30.85858154 20.42204285 C-34.14830292 20.85490652 -34.14830292 20.85490652 -36.875 22.5 C-36.53275391 23.46099609 -36.53275391 23.46099609 -36.18359375 24.44140625 C-34.42379565 29.73658349 -33.01024772 34.01543448 -34.875 39.5 C-39.10510786 42.78435691 -43.57418168 44.74632407 -48.58203125 46.515625 C-49.30686203 46.77631775 -50.03169281 47.0370105 -50.77848816 47.30560303 C-52.30400361 47.8509331 -53.83108285 48.39190643 -55.35961914 48.92871094 C-57.67629716 49.74604758 -59.98345763 50.58699987 -62.29101562 51.4296875 C-63.78333486 51.95979753 -65.27615846 52.48849025 -66.76953125 53.015625 C-67.78718315 53.3905307 -67.78718315 53.3905307 -68.82539368 53.77301025 C-73.80227337 55.4855943 -78.61562709 56.16935693 -83.875 55.5 C-85.9375 53.9375 -85.9375 53.9375 -86.875 51.5 C-87.24946267 48.00501506 -87.46083963 45.56778901 -85.74609375 42.44238281 C-83.26286281 39.86454025 -80.93479133 39.10103123 -77.5625 37.921875 C-76.32242188 37.48359375 -75.08234375 37.0453125 -73.8046875 36.59375 C-73.15983398 36.37332031 -72.51498047 36.15289062 -71.85058594 35.92578125 C-69.87707811 35.25071085 -67.91100163 34.5568459 -65.9453125 33.859375 C-56.32710193 30.5 -56.32710193 30.5 -52.875 30.5 C-53.0915625 29.79875 -53.308125 29.0975 -53.53125 28.375 C-55.23020791 22.58595823 -56.61588018 17.53288148 -55.875 11.5 C-52.5321152 6.64281696 -47.72479076 6.2036286 -42.2890625 5.140625 C-41.3545224 4.94652039 -40.4199823 4.75241577 -39.4571228 4.5524292 C-37.48328909 4.1454952 -35.50793932 3.74585574 -33.53125 3.35302734 C-30.51466398 2.75291721 -27.50338046 2.13045882 -24.4921875 1.50390625 C-22.57058273 1.11065636 -20.64871544 0.71868667 -18.7265625 0.328125 C-17.82950592 0.1438092 -16.93244934 -0.04050659 -16.00820923 -0.23040771 C-4.71408139 -2.45952072 -4.71408139 -2.45952072 0 0 Z " fill="#464646" transform="translate(289.875,430.5)"/>
<path d="M0 0 C3.41500399 3.55655647 4.90843708 6.94040765 6.359375 11.61328125 C6.75253906 12.86044922 7.14570313 14.10761719 7.55078125 15.39257812 C7.95076082 16.69914531 8.35049742 18.00578689 8.75 19.3125 C9.16435526 20.63898758 9.57971037 21.96516327 9.99609375 23.29101562 C11.00726563 26.52441406 12.00815557 29.76063101 13 33 C13.67691895 32.85997559 14.35383789 32.71995117 15.05126953 32.57568359 C15.94442871 32.39344238 16.83758789 32.21120117 17.7578125 32.0234375 C19.08256592 31.75152588 19.08256592 31.75152588 20.43408203 31.47412109 C23.7498997 30.86143623 26.64385347 30.59726242 30 31 C33.71331152 33.92245361 34.68423905 36.42119526 35.59765625 40.98828125 C35.8404834 42.16302002 36.08331055 43.33775879 36.33349609 44.5480957 C36.57406738 45.79034912 36.81463867 47.03260254 37.0625 48.3125 C37.31854004 49.57602295 37.57458008 50.8395459 37.83837891 52.14135742 C38.34299052 54.63855854 38.84153609 57.13699443 39.33349609 59.63671875 C39.88297214 62.4094594 40.4545597 65.1745511 41.05078125 67.9375 C42.28335922 73.73236896 43.36699649 79.04336468 43 85 C40.55401113 88.38121991 39.10703441 89.76936783 35 90.625 C30.9108451 89.77309273 29.63954867 88.21454696 27 85 C26.10171011 82.19386344 25.47450552 79.72622826 24.98046875 76.85546875 C24.83217117 76.08568192 24.6838736 75.31589508 24.53108215 74.52278137 C24.06493131 72.08071772 23.62589822 69.63468171 23.1875 67.1875 C22.87482885 65.52375266 22.56039391 63.86033577 22.24414062 62.19726562 C21.47562879 58.13505042 20.73138401 54.06905671 20 50 C19.24654297 50.2172876 18.49308594 50.4345752 17.71679688 50.65844727 C16.72744141 50.93744873 15.73808594 51.2164502 14.71875 51.50390625 C13.73841797 51.78306885 12.75808594 52.06223145 11.74804688 52.34985352 C8.44082529 53.13229231 6.19841012 53.19940379 3 52 C-0.2151484 48.59312501 -1.46136279 44.40628637 -2.91796875 40.05078125 C-3.31113029 38.8927021 -3.31113029 38.8927021 -3.7122345 37.71122742 C-4.26314387 36.0793846 -4.81007244 34.44619314 -5.35327148 32.81176758 C-6.18057245 30.33325427 -7.02992853 27.86306227 -7.88085938 25.39257812 C-8.41543336 23.79993864 -8.94867919 22.20685262 -9.48046875 20.61328125 C-9.73354294 19.88482498 -9.98661713 19.15636871 -10.24736023 18.40583801 C-11.9002428 13.33637004 -12.80448458 8.33271049 -12 3 C-8.4408987 -1.52976529 -5.35199092 -1.65425174 0 0 Z " fill="#474747" transform="translate(158,8)"/>
</svg>
